<svg width="37" height="37" viewBox="0 0 37 37" fill="none" xmlns="http://www.w3.org/2000/svg">
<path d="M18.3333 31.6667C14.6111 31.6667 11.4583 30.375 8.875 27.7917C6.29167 25.2083 5 22.0556 5 18.3333C5 14.6111 6.29167 11.4583 8.875 8.875C11.4583 6.29167 14.6111 5 18.3333 5C22.0556 5 25.2083 6.29167 27.7917 8.875C30.375 11.4583 31.6667 14.6111 31.6667 18.3333C31.6667 22.0556 30.375 25.2083 27.7917 27.7917C25.2083 30.375 22.0556 31.6667 18.3333 31.6667ZM18.3333 28.3333C21.1111 28.3333 23.4722 27.3611 25.4167 25.4167C27.3611 23.4722 28.3333 21.1111 28.3333 18.3333C28.3333 17.8611 28.2989 17.3961 28.23 16.9383C28.1611 16.4806 28.0567 16.0289 27.9167 15.5833C27.5 15.6667 27.0833 15.7294 26.6667 15.7717C26.25 15.8139 25.8333 15.8344 25.4167 15.8333C23.6667 15.8333 22 15.5 20.4167 14.8333C18.8333 14.1667 17.4167 13.1944 16.1667 11.9167C15.3889 13.5 14.3194 14.875 12.9583 16.0417C11.5972 17.2083 10.0556 18.0556 8.33333 18.5833C8.41667 21.3056 9.42333 23.6111 11.3533 25.5C13.2833 27.3889 15.61 28.3333 18.3333 28.3333ZM14.1667 21.6667C13.6944 21.6667 13.2989 21.5067 12.98 21.1867C12.6611 20.8667 12.5011 20.4711 12.5 20C12.4989 19.5289 12.6589 19.1333 12.98 18.8133C13.3011 18.4933 13.6967 18.3333 14.1667 18.3333C14.6367 18.3333 15.0328 18.4933 15.355 18.8133C15.6772 19.1333 15.8367 19.5289 15.8333 20C15.83 20.4711 15.67 20.8672 15.3533 21.1883C15.0367 21.5094 14.6411 21.6689 14.1667 21.6667ZM22.5 21.6667C22.0278 21.6667 21.6322 21.5067 21.3133 21.1867C20.9944 20.8667 20.8344 20.4711 20.8333 20C20.8322 19.5289 20.9922 19.1333 21.3133 18.8133C21.6344 18.4933 22.03 18.3333 22.5 18.3333C22.97 18.3333 23.3661 18.4933 23.6883 18.8133C24.0106 19.1333 24.17 19.5289 24.1667 20C24.1633 20.4711 24.0033 20.8672 23.6867 21.1883C23.37 21.5094 22.9744 21.6689 22.5 21.6667ZM0 8.33333V0H8.33333V3.33333H3.33333V8.33333H0ZM0 36.6667V28.3333H3.33333V33.3333H8.33333V36.6667H0ZM28.3333 36.6667V33.3333H33.3333V28.3333H36.6667V36.6667H28.3333ZM33.3333 8.33333V3.33333H28.3333V0H36.6667V8.33333H33.3333Z" fill="#2AB673"/>
</svg>
