<svg width="19" height="19" viewBox="0 0 19 19" fill="none" xmlns="http://www.w3.org/2000/svg">
<path d="M6.77083 13.5417C4.87847 13.5417 3.27708 12.8861 1.96667 11.575C0.656251 10.2639 0.000694996 8.6625 5.51146e-07 6.77083C-0.000693893 4.87917 0.654862 3.27778 1.96667 1.96667C3.27847 0.655556 4.87986 0 6.77083 0C8.66181 0 10.2635 0.655556 11.576 1.96667C12.8885 3.27778 13.5438 4.87917 13.5417 6.77083C13.5417 7.53472 13.4201 8.25521 13.1771 8.93229C12.934 9.60938 12.6042 10.2083 12.1875 10.7292L18.0208 16.5625C18.2118 16.7535 18.3073 16.9965 18.3073 17.2917C18.3073 17.5868 18.2118 17.8299 18.0208 18.0208C17.8299 18.2118 17.5868 18.3073 17.2917 18.3073C16.9965 18.3073 16.7535 18.2118 16.5625 18.0208L10.7292 12.1875C10.2083 12.6042 9.60938 12.934 8.93229 13.1771C8.25521 13.4201 7.53472 13.5417 6.77083 13.5417ZM6.77083 11.4583C8.07292 11.4583 9.17986 11.0028 10.0917 10.0917C11.0035 9.18056 11.459 8.07361 11.4583 6.77083C11.4576 5.46806 11.0021 4.36146 10.0917 3.45104C9.18125 2.54063 8.07431 2.08472 6.77083 2.08333C5.46736 2.08194 4.36076 2.53785 3.45104 3.45104C2.54132 4.36424 2.08542 5.47083 2.08333 6.77083C2.08125 8.07083 2.53715 9.17778 3.45104 10.0917C4.36493 11.0056 5.47153 11.4611 6.77083 11.4583Z" fill="#2E2E2E"/>
</svg>
