<svg width="27" height="34" viewBox="0 0 27 34" fill="none" xmlns="http://www.w3.org/2000/svg">
<path d="M10.8333 22.5H15.8333V18.3333H20V13.3333H15.8333V9.16667H10.8333V13.3333H6.66667V18.3333H10.8333V22.5ZM13.3333 33.3333C9.47222 32.3611 6.28445 30.1456 3.77 26.6867C1.25556 23.2278 -0.00111037 19.3878 7.3616e-07 15.1667V5L13.3333 0L26.6667 5V15.1667C26.6667 19.3889 25.41 23.2294 22.8967 26.6883C20.3833 30.1472 17.1956 32.3622 13.3333 33.3333ZM13.3333 29.8333C16.2222 28.9167 18.6111 27.0833 20.5 24.3333C22.3889 21.5833 23.3333 18.5278 23.3333 15.1667V7.29167L13.3333 3.54167L3.33333 7.29167V15.1667C3.33333 18.5278 4.27778 21.5833 6.16667 24.3333C8.05556 27.0833 10.4444 28.9167 13.3333 29.8333Z" fill="#2AB673"/>
</svg>
