<svg width="30" height="34" viewBox="0 0 30 34" fill="none" xmlns="http://www.w3.org/2000/svg">
<path d="M6.66667 23.3333H10V3.33333H6.66667V23.3333ZM5 33.3333C3.61111 33.3333 2.43056 32.8472 1.45833 31.875C0.486111 30.9028 0 29.7222 0 28.3333V5C0 3.61111 0.486111 2.43056 1.45833 1.45833C2.43056 0.486111 3.61111 0 5 0H23.3333V26.6667H5C4.52778 26.6667 4.13222 26.8267 3.81333 27.1467C3.49444 27.4667 3.33444 27.8622 3.33333 28.3333C3.33222 28.8044 3.49222 29.2006 3.81333 29.5217C4.13444 29.8428 4.53 30.0022 5 30H26.6667V3.33333H30V33.3333H5Z" fill="#2AB673"/>
</svg>
