<svg width="16" height="11" viewBox="0 0 16 11" fill="none" xmlns="http://www.w3.org/2000/svg">
<path d="M5.43751 8.46603C6.72415 7.40033 8.60882 7.40044 9.89551 8.46603C9.96019 8.5233 9.99816 8.6043 10 8.68966C10.0018 8.77498 9.96739 8.85736 9.90528 8.9172L7.89063 10.9084C7.83163 10.9669 7.75093 11.0001 7.667 11.0002C7.58298 11.0002 7.50243 10.9669 7.44337 10.9084L5.42774 8.9172C5.36573 8.85732 5.33117 8.77495 5.33301 8.68966C5.33491 8.60432 5.37283 8.52327 5.43751 8.46603ZM2.76563 5.60177C5.5279 3.02241 9.8051 3.02244 12.5674 5.60177C12.6297 5.66226 12.6661 5.7452 12.667 5.83224C12.6678 5.91919 12.6333 6.00298 12.5723 6.06466L11.4121 7.24142C11.2925 7.36161 11.0993 7.36427 10.9766 7.24728C10.0695 6.42272 8.88877 5.96596 7.66505 5.96603C6.44243 5.96665 5.26377 6.42355 4.35743 7.24728C4.23478 7.36427 4.04149 7.36152 3.92188 7.24142L2.76075 6.06466C2.69963 6.00306 2.66623 5.91918 2.667 5.83224C2.66782 5.74523 2.70331 5.66225 2.76563 5.60177ZM0.0966866 2.98068C4.32862 -0.993512 11.0054 -0.993608 15.2373 2.98068C15.2984 3.03962 15.3324 3.12031 15.333 3.20431C15.3335 3.28851 15.2998 3.37016 15.2393 3.4299L14.0791 4.57736C13.9595 4.69515 13.765 4.69626 13.6436 4.58029C12.0312 3.07835 9.89157 2.24054 7.667 2.24045C5.44212 2.24046 3.30199 3.07812 1.68946 4.58029C1.56816 4.6964 1.3744 4.69522 1.25489 4.57736L0.0937569 3.4299C0.0332521 3.37011 -0.000558362 3.28851 6.91414e-06 3.20431C0.000667921 3.12024 0.0354709 3.0396 0.0966866 2.98068Z" fill="black"/>
</svg>
