<svg width="10" height="4" viewBox="0 0 10 4" fill="none" xmlns="http://www.w3.org/2000/svg">
<path d="M4.99881 2.29945C6.22254 2.29938 7.4026 2.75598 8.3097 3.58054C8.43238 3.69756 8.62565 3.69502 8.74525 3.57482L9.90583 2.39766C9.96695 2.33592 10.0009 2.25215 9.99998 2.16511C9.9991 2.07807 9.9635 1.99502 9.90114 1.93453C7.13886 -0.644844 2.86111 -0.644844 0.0988288 1.93453C0.0364329 1.99502 0.000833291 2.07811 1.44426e-05 2.16518C-0.000804405 2.25225 0.0332261 2.336 0.0944733 2.39766L1.25472 3.57482C1.37432 3.69502 1.56759 3.69756 1.69028 3.58054C2.59677 2.75652 3.77589 2.29996 4.99881 2.29945V2.29945Z" fill="#DADADA"/>
</svg>
