<svg width="16" height="5" viewBox="0 0 16 5" fill="none" xmlns="http://www.w3.org/2000/svg">
<path d="M7.66709 2.24056C9.89182 2.24066 12.0315 3.07835 13.6438 4.5805C13.7653 4.69648 13.9593 4.69501 14.0789 4.57722L15.2395 3.42939C15.3001 3.36965 15.3338 3.28873 15.3333 3.20453C15.3328 3.12033 15.2981 3.0398 15.2368 2.98075C11.0049 -0.993584 4.32858 -0.993584 0.0966568 2.98075C0.0353545 3.03975 0.000572275 3.12026 6.9986e-06 3.20446C-0.000558278 3.28866 0.03314 3.36961 0.0936448 3.42939L1.25459 4.57722C1.3741 4.69519 1.56832 4.69665 1.68966 4.5805C3.30222 3.07825 5.44213 2.24056 7.66709 2.24056V2.24056Z" fill="#DADADA"/>
</svg>
